#!OML:ASF E:\Steps\Project 1\Capture day 1\Session 2\Subject.ASF
:FULLY-SPECIFIED
:DEGREES
392
root 3.64268 18.6803 9.32573 -151.745 2.02343 174.024
lowerback -17.3688 -2.4984 -5.36182
upperback 2.18426 -1.97828 -0.926689
thorax 12.4048 -1.22272 1.47152
lowerneck -2.39876 -0.940401 -2.24601
upperneck 17.4568 -0.405041 1.78372
head 5.6664 0.150863 0.948833
rclavicle -1.45858e-014 -1.21197e-014
rhumerus -41.3469 -15.6275 -75.9063
rradius 46.6995
rwrist -4.42223
rhand -9.79595 -410.735
rfingers 7.12502
rthumb 16.1801 -440.08
lclavicle -1.45858e-014 -1.21197e-014
lhumerus -32.8284 -11.8883 83.488
lradius 30.0303
lwrist 3.76776
lhand -21.3042 -13.0425
lfingers 7.12502
lthumb 5.08064 16.8766
rfemur -44.8842 11.1297 10.9046
rtibia 29.7333
rfoot -23.5741 -3.63284
rtoes -26.3959
lfemur -40.6514 -4.11719 -29.7257
ltibia 27.5541
lfoot -12.4768 -0.7535
ltoes -14.0479
393
root 3.61434 18.6853 9.27484 -151.888 2.48249 174.346
lowerback -17.6268 -2.24161 -5.02687
upperback 2.08016 -1.70772 -0.856515
thorax 12.4053 -1.07625 1.43223
lowerneck -2.34378 -0.988939 -2.56235
upperneck 17.4327 -0.469542 1.93625
head 5.6524 0.110576 1.04593
rclavicle -1.3828e-014 -5.86415e-015
rhumerus -41.3707 -15.9458 -75.7263
rradius 46.1919
rwrist -4.31507
rhand -9.92633 -411.337
rfingers 7.12502
rthumb 16.0546 -440.692
lclavicle -1.3828e-014 -5.86415e-015
lhumerus -32.9312 -11.2443 83.5488
lradius 29.8817
lwrist 3.76763
lhand -21.0567 -12.8744
lfingers 7.12502
lthumb 5.31964 17.0388
rfemur -44.5135 11.0737 11.2706
rtibia 29.4672
rfoot -23.9582 -3.19516
rtoes -25.5433
lfemur -40.2884 -4.02937 -29.5026
ltibia 27.4995
lfoot -12.6935 -0.267589
ltoes -13.9939
394
root 3.60185 18.6903 9.2556 -151.8 2.38314 174.749
lowerback -17.7415 -2.17459 -4.7194
upperback 1.92211 -1.71927 -0.617456
thorax 12.2874 -1.06947 1.5207
lowerneck -2.13379 -0.923917 -2.30394
upperneck 17.0653 -0.366351 1.52532
head 5.49824 0.140445 0.876356
rclavicle 2.52208e-014 -7.45443e-015
rhumerus -41.2712 -16.1844 -75.6194
rradius 45.7728
rwrist -4.24976
rhand -9.66408 -411.959
rfingers 7.12502
rthumb 16.3071 -441.293
lclavicle 2.52208e-014 -7.45443e-015
lhumerus -32.9306 -10.4752 83.5755
lradius 29.7301
lwrist 3.64816
lhand -20.7509 -12.9709
lfingers 7.12502
lthumb 5.61483 16.9348
rfemur -44.4823 10.7652 11.9043
rtibia 29.4377
rfoot -22.9968 -2.85626
rtoes -27.6602
lfemur -40.4613 -4.01747 -29.03
ltibia 27.7865
lfoot -12.7477 -0.176936
ltoes -13.7042
395
root 3.58736 18.698 9.22111 -151.805 2.67777 174.764
lowerback -18.0468 -2.04875 -4.81748
upperback 1.9289 -1.50916 -0.618977
thorax 12.4628 -0.980038 1.62748
lowerneck -2.5345 -0.990116 -2.0685
upperneck 17.1047 -0.449483 1.25702
head 5.57946 0.0891996 0.748009
rclavicle -3.97569e-016 -2.11706e-014
rhumerus -40.9325 -16.6009 -75.6535
rradius 45.199
rwrist -4.25308
rhand -9.59118 -412.534
rfingers 7.12502
rthumb 16.3773 -441.863
lclavicle -3.97569e-016 -2.11706e-014
lhumerus -32.755 -10.0203 83.4702
lradius 29.7149
lwrist 3.75972
lhand -20.8478 -13.2198
lfingers 7.12502
lthumb 5.52125 16.6882
rfemur -44.3508 10.477 12.0163
rtibia 29.4066
rfoot -24.0252 -2.30395
rtoes -26.7058
lfemur -40.3192 -3.858 -29.1507
ltibia 27.775
lfoot -12.9357 0.00455942
ltoes -15.8571
396
root 3.57045 18.708 9.1714 -152.094 3.1944 174.802
lowerback -18.2941 -1.73427 -4.86626
upperback 2.20116 -1.03631 -0.795793
thorax 12.886 -0.768384 1.58521
lowerneck -3.15582 -1.14481 -1.25971
upperneck 16.8199 -0.70995 0.704106
head 5.59505 -0.0511414 0.421232
rclavicle 1.37161e-014 8.94531e-016
rhumerus -40.3394 -17.6247 -75.7963
rradius 44.5492
rwrist -3.96457
rhand -9.87829 -412.589
rfingers 7.12502
rthumb 16.1008 -441.94
lclavicle 1.37161e-014 8.94531e-016
lhumerus -32.1986 -10.0273 83.2124
lradius 29.6355
lwrist 3.90664
lhand -21.1827 -13.3785
lfingers 7.12502
lthumb 5.19798 16.5378
rfemur -43.7988 10.3382 12.1374
rtibia 29.2004
rfoot -24.413 -1.7566
rtoes -26.7194
lfemur -39.6959 -3.65861 -29.2696
ltibia 27.5214
lfoot -13.2494 0.437313
ltoes -18.6716
397
root 3.55458 18.7172 9.12046 -152.416 3.69673 174.918
lowerback -18.6859 -1.70139 -4.99408
upperback 2.14724 -0.957195 -0.663962
thorax 13.0542 -0.749459 1.82331
lowerneck -3.42905 -1.3317 -2.42318
upperneck 17.8333 -0.958681 1.90468
head 5.97545 -0.127937 0.984705
rclavicle -1.0635e-014 1.83876e-014
rhumerus -40.3899 -17.4154 -75.6569
rradius 44.0795
rwrist -3.8058
rhand -9.95529 -412.053
rfingers 7.12502
rthumb 16.0267 -441.41
lclavicle -1.0635e-014 1.83876e-014
lhumerus -32.6606 -8.96534 83.2427
lradius 29.552
lwrist 3.59161
lhand -21.3634 -13.4635
lfingers 7.12502
lthumb 5.02344 16.457
rfemur -43.2272 10.4276 12.2682
rtibia 28.9938
rfoot -24.3415 -1.29709
rtoes -26.3638
lfemur -38.9949 -3.5007 -29.2586
ltibia 27.2078
lfoot -13.4559 0.745492
ltoes -18.2737
398
root 3.54179 18.7256 9.08153 -152.569 3.94785 174.972
lowerback -18.9491 -1.64903 -5.16394
upperback 2.08152 -0.846942 -0.54944
thorax 13.1303 -0.716506 2.07891
lowerneck -3.40854 -1.37001 -2.63504
upperneck 17.9822 -0.999648 2.06492
head 6.022 -0.142846 1.06986
rclavicle 1.42628e-014 2.05742e-014
rhumerus -40.3734 -17.4582 -75.5443
rradius 43.7231
rwrist -3.78437
rhand -9.75611 -411.81
rfingers 7.12502
rthumb 16.2185 -441.152
lclavicle 1.42628e-014 2.05742e-014
lhumerus -32.803 -8.22756 83.2808
lradius 29.49
lwrist 3.48802
lhand -21.1622 -13.2658
lfingers 7.12502
lthumb 5.21775 16.6499
rfemur -42.8392 10.5599 12.2932
rtibia 28.7803
rfoot -24.2153 -1.29014
rtoes -26.3863
lfemur -38.5686 -3.42784 -29.2861
ltibia 27.0047
lfoot -13.562 0.992604
ltoes -19.6557
399
root 3.53326 18.7316 9.05489 -152.516 3.97344 174.949
lowerback -19.0327 -1.69534 -5.35991
upperback 1.84917 -0.87148 -0.43668
thorax 12.9185 -0.735479 2.31238
lowerneck -3.06714 -1.32467 -2.53311
upperneck 17.5112 -0.948784 1.86425
head 5.81215 -0.137224 0.989572
rclavicle -1.14301e-015 -2.44505e-014
rhumerus -40.3911 -17.5088 -75.4461
rradius 43.2987
rwrist -3.80274
rhand -9.82647 -412.356
rfingers 7.12502
rthumb 16.1507 -441.703
lclavicle -1.14301e-015 -2.44505e-014
lhumerus -33.0593 -7.62098 83.3206
lradius 29.4473
lwrist 3.51324
lhand -21.1095 -12.9002
lfingers 7.12502
lthumb 5.26861 17.0143
rfemur -42.6707 10.524 12.272
rtibia 28.564
rfoot -24.2093 -1.51654
rtoes -27.078
lfemur -38.5431 -3.52725 -29.3286
ltibia 27.0566
lfoot -13.668 1.26387
ltoes -22.6675
